<svg width="483" height="165" viewBox="0 0 483 165" fill="none" xmlns="http://www.w3.org/2000/svg">
<path d="M483 117.137H481.723L480.795 112.154C480.795 112.024 480.775 111.894 480.737 111.764C479.537 105.185 477.448 101.896 474.469 101.896H465.706V126.321H477.545V129.154H465.706V155.436H474.469C475.05 155.436 475.611 155.306 476.152 155.045C478.241 154.068 479.789 150.779 480.795 145.177L481.723 140.195H483L482.71 157.976H455.493V155.436H460.135V101.896H455.493V99.3555H482.71L483 117.137Z" fill="white"/>
<path d="M449.225 153.58C445.666 157.097 441.913 158.888 437.967 158.953C432.59 158.953 428.237 155.957 424.91 149.965C421.738 144.168 420.151 137.003 420.151 128.47C420.151 121.436 421.293 115.216 423.575 109.809C426.864 102.189 431.603 98.3784 437.793 98.3784C438.606 98.3784 439.418 98.4436 440.23 98.5738C443.867 99.2252 446.788 100.984 448.993 103.85C448.993 102.286 449.032 101.114 449.109 100.332C449.303 99.3554 449.844 98.8669 450.734 98.8669L450.908 117.137H449.4C447.542 106.585 443.79 101.244 438.141 101.114C436.13 101.114 434.311 101.961 432.686 103.654C428.663 107.823 426.651 116.127 426.651 128.568C426.651 133.258 426.941 137.459 427.521 141.172C429.069 151.202 432.532 156.218 437.909 156.218C443.751 156.152 447.639 150.681 449.574 139.804H451.082V158.465C450.618 158.465 450.27 158.4 450.038 158.269C449.496 157.878 449.225 156.315 449.225 153.58Z" fill="white"/>
<path d="M405.121 101.896V99.3555H416.96V101.896H412.317V157.488L409.532 158.465L386.783 111.08V155.436H390.207C390.4 155.436 390.594 155.469 390.787 155.534C391.406 155.729 391.716 156.543 391.716 157.976H379.819V155.436H384.462V101.896H379.819V99.3555H388.234L409.996 144.591V101.896H405.121Z" fill="white"/>
<path d="M378.717 157.976H365.543V155.436H369.431L365.079 136.482H353.066L348.714 155.436H351.674C351.867 155.436 352.061 155.469 352.254 155.534C352.834 155.664 353.124 156.478 353.124 157.976H342.737V155.436H346.393L359.334 99.3555H361.945L375.293 155.436H377.208C377.401 155.436 377.595 155.469 377.788 155.534C378.407 155.664 378.717 156.478 378.717 157.976ZM364.383 133.649L359.044 110.298L353.705 133.649H364.383Z" fill="white"/>
<path d="M305.538 99.3555H321.903C325.927 99.3555 329.447 100.951 332.465 104.143C337.34 109.354 339.777 117.528 339.777 128.666C339.777 137.264 338.133 144.265 334.844 149.672C331.44 155.208 327.087 157.976 321.787 157.976H305.538V155.436H310.181V101.896H305.538V99.3555ZM321.787 101.896H315.752V155.436H321.903C329.641 155.371 333.529 146.317 333.568 128.275C333.568 123.39 333.278 119.156 332.697 115.574C331.188 106.455 327.552 101.896 321.787 101.896Z" fill="white"/>
<path d="M300.606 117.137H299.329L298.4 112.154C298.4 112.024 298.381 111.894 298.342 111.764C297.143 105.185 295.054 101.896 292.075 101.896H283.312V126.321H295.151V129.154H283.312V155.436H292.075C292.655 155.436 293.216 155.306 293.758 155.045C295.847 154.068 297.394 150.779 298.4 145.177L299.329 140.195H300.606L300.315 157.976H273.098V155.436H277.741V101.896H273.098V99.3555H300.315L300.606 117.137Z" fill="white"/>
<path d="M266.831 153.58C263.272 157.097 259.519 158.888 255.573 158.953C250.195 158.953 245.843 155.957 242.516 149.965C239.343 144.168 237.757 137.003 237.757 128.47C237.757 121.436 238.898 115.216 241.181 109.809C244.469 102.189 249.209 98.3784 255.399 98.3784C256.211 98.3784 257.024 98.4436 257.836 98.5738C261.473 99.2252 264.394 100.984 266.599 103.85C266.599 102.286 266.638 101.114 266.715 100.332C266.908 99.3554 267.45 98.8669 268.34 98.8669L268.514 117.137H267.005C265.148 106.585 261.395 101.244 255.747 101.114C253.735 101.114 251.917 101.961 250.292 103.654C246.268 107.823 244.257 116.127 244.257 128.568C244.257 133.258 244.547 137.459 245.127 141.172C246.675 151.202 250.137 156.218 255.515 156.218C261.357 156.152 265.245 150.681 267.179 139.804H268.688V158.465C268.224 158.465 267.876 158.4 267.643 158.269C267.102 157.878 266.831 156.315 266.831 153.58Z" fill="white"/>
<path d="M222.727 101.896V99.3555H234.565V101.896H229.923V157.488L227.137 158.465L204.389 111.08V155.436H207.812C208.006 155.436 208.199 155.469 208.393 155.534C209.012 155.729 209.321 156.543 209.321 157.976H197.425V155.436H202.067V101.896H197.425V99.3555H205.839L227.601 144.591V101.896H222.727Z" fill="white"/>
<path d="M196.322 157.976H183.149V155.436H187.037L182.685 136.482H170.672L166.32 155.436H169.279C169.473 155.436 169.666 155.469 169.86 155.534C170.44 155.664 170.73 156.478 170.73 157.976H160.342V155.436H163.998L176.939 99.3555H179.551L192.898 155.436H194.813C195.007 155.436 195.2 155.469 195.394 155.534C196.013 155.664 196.322 156.478 196.322 157.976ZM181.988 133.649L176.649 110.298L171.31 133.649H181.988Z" fill="white"/>
<path d="M141.772 157.976H126.916V155.436H131.558V101.896H126.916V99.3555H144.558C147.575 99.3555 150.129 100.528 152.218 102.873C154.733 105.804 155.99 109.712 155.99 114.597C155.99 116.551 155.758 118.472 155.294 120.361C153.978 125.311 151.463 128.601 147.749 130.229L157.034 155.436H158.95C159.182 155.436 159.394 155.469 159.588 155.534C160.091 155.664 160.342 156.478 160.342 157.976H151.289L142.12 131.108H137.13V155.436H141.772V157.976ZM142.468 101.896H137.13V128.275H142.701C144.364 128.275 145.796 127.461 146.995 125.832C148.929 123.292 149.897 119.612 149.897 114.792C149.897 112.708 149.664 110.721 149.2 108.832C147.962 104.208 145.718 101.896 142.468 101.896Z" fill="white"/>
<path d="M116.47 157.976H99.873V155.436H105.386V101.896H102.717C99.5054 101.961 97.3583 105.315 96.275 111.959L95.1724 118.896H93.5475L93.8376 99.3555H122.796L123.028 118.896H121.403L120.3 111.959C119.256 105.315 117.128 101.961 113.917 101.896H110.957V155.436H114.961C115.155 155.436 115.348 155.469 115.542 155.534C116.161 155.729 116.47 156.543 116.47 157.976Z" fill="white"/>
<path d="M64.1253 164.522V160.419H91.1682V164.522H64.1253Z" fill="white"/>
<path d="M55.1884 157.976H38.5913V155.436H44.1043V101.896H41.4349C38.2238 101.961 36.0766 105.315 34.9933 111.959L33.8907 118.896H32.2658L32.556 99.3555H61.5139L61.746 118.896H60.1211L59.0185 111.959C57.974 105.315 55.8461 101.961 52.635 101.896H49.6754V155.436H53.6796C53.873 155.436 54.0665 155.469 54.2599 155.534C54.8789 155.729 55.1884 156.543 55.1884 157.976Z" fill="white"/>
<path d="M19.6148 157.976H2.43738V155.436H7.07994V101.896H2.43738V99.3555H29.6544L29.9445 117.235H28.6678L27.7393 112.154C27.7393 112.024 27.72 111.894 27.6813 111.764C26.482 105.185 24.3928 101.896 21.4138 101.896H12.651V126.321H24.4895V129.154H12.651V155.436H19.6148V157.976Z" fill="white"/>
<path d="M331.769 0C335.792 0 339.352 1.92146 342.447 5.76437C346.896 11.3659 349.12 19.5402 349.12 30.2874C349.12 39.4061 347.302 46.864 343.665 52.6609C340.299 57.9368 336.276 60.5747 331.595 60.5747C327.455 60.5747 323.78 58.4579 320.569 54.2242C316.274 48.4272 314.127 40.318 314.127 29.8966C314.127 20.9081 315.945 13.5479 319.582 7.81609C322.987 2.60536 327.049 0 331.769 0ZM331.769 57.8391C332.697 57.8391 333.587 57.6763 334.438 57.3506C339.893 55.0058 342.621 45.8544 342.621 29.8966C342.582 11.9195 338.907 2.8659 331.595 2.73563C331.053 2.73563 330.492 2.80077 329.912 2.93104C323.683 4.29885 320.569 13.4176 320.569 30.2874C320.569 31.4598 320.588 32.6322 320.627 33.8046C321.091 49.8276 324.805 57.8391 331.769 57.8391Z" fill="white"/>
<path d="M302.811 59.5978H286.214V57.0575H291.727V3.51728H289.057C285.846 3.58242 283.699 6.93682 282.616 13.5805L281.513 20.5173H279.888L280.178 0.977051H309.136L309.368 20.5173H307.743L306.641 13.5805C305.596 6.93682 303.468 3.58242 300.257 3.51728H297.298V57.0575H301.302C301.495 57.0575 301.689 57.0901 301.882 57.1552C302.501 57.3506 302.811 58.1648 302.811 59.5978Z" fill="white"/>
<path d="M263.929 18.7587H262.653L261.724 13.7759C261.724 13.6456 261.705 13.5154 261.666 13.3851C260.467 6.80655 258.378 3.51728 255.399 3.51728H246.636V27.9426H258.474V30.7759H246.636V57.0575H255.399C255.979 57.0575 256.54 56.9273 257.082 56.6667C259.171 55.6897 260.718 52.4004 261.724 46.7989L262.653 41.8161H263.929L263.639 59.5978H236.422V57.0575H241.065V3.51728H236.422V0.977051H263.639L263.929 18.7587Z" fill="white"/>
<path d="M232.824 0.977051V3.51728H228.182V57.0575H231.315C231.509 57.0575 231.702 57.0901 231.896 57.1552C232.515 57.3506 232.824 58.1648 232.824 59.5978H218.258V57.0575H222.901V10.0633L209.728 60.184H208.509L195.858 16.023V57.0575H198.992C199.185 57.0575 199.378 57.0901 199.572 57.1552C200.191 57.3506 200.5 58.1648 200.5 59.5978H188.894V57.0575H193.537V3.51728H188.894V0.977051H197.599L210.83 47.5805L222.901 0.977051H232.824Z" fill="white"/>
<path d="M167.074 0C171.098 0 174.657 1.92146 177.752 5.76437C182.201 11.3659 184.426 19.5402 184.426 30.2874C184.426 39.4061 182.607 46.864 178.971 52.6609C175.605 57.9368 171.581 60.5747 166.9 60.5747C162.76 60.5747 159.085 58.4579 155.874 54.2242C151.579 48.4272 149.432 40.318 149.432 29.8966C149.432 20.9081 151.251 13.5479 154.887 7.81609C158.292 2.60536 162.354 0 167.074 0ZM167.074 57.8391C168.003 57.8391 168.892 57.6763 169.743 57.3506C175.199 55.0058 177.926 45.8544 177.926 29.8966C177.887 11.9195 174.212 2.8659 166.9 2.73563C166.358 2.73563 165.797 2.80077 165.217 2.93104C158.988 4.29885 155.874 13.4176 155.874 30.2874C155.874 31.4598 155.893 32.6322 155.932 33.8046C156.396 49.8276 160.11 57.8391 167.074 57.8391Z" fill="white"/>
<path d="M142.294 55.2012C138.735 58.7184 134.982 60.5096 131.036 60.5747C125.659 60.5747 121.306 57.5786 117.979 51.5862C114.807 45.7893 113.22 38.6245 113.22 30.092C113.22 23.0575 114.362 16.8372 116.644 11.431C119.933 3.81035 124.672 0 130.862 0C131.675 0 132.487 0.0651341 133.299 0.195402C136.936 0.846744 139.857 2.60536 142.062 5.47127C142.062 3.90805 142.101 2.73563 142.178 1.95402C142.372 0.977012 142.913 0.488506 143.803 0.488506L143.977 18.7586H142.469C140.611 8.2069 136.859 2.8659 131.21 2.73563C129.199 2.73563 127.38 3.58238 125.755 5.27586C121.732 9.44445 119.72 17.749 119.72 30.1897C119.72 34.8793 120.01 39.0805 120.59 42.7931C122.138 52.8238 125.601 57.8391 130.978 57.8391C136.82 57.774 140.708 52.3027 142.643 41.4253H144.151V60.0862C143.687 60.0862 143.339 60.0211 143.107 59.8908C142.565 59.5 142.294 57.9368 142.294 55.2012Z" fill="white"/>
<path d="M109.796 59.5978H83.7981V57.0575H88.4407V3.51728H83.7981V0.977051H98.9444V3.51728H94.0117V57.0575H101.614C102.156 57.0575 102.678 56.9598 103.181 56.7644C105.309 55.8525 106.817 52.5307 107.707 46.7989L108.81 39.7644H110.087L109.796 59.5978Z" fill="white"/>
<path d="M78.8654 18.7587H77.5887L76.6602 13.7759C76.6602 13.6456 76.6409 13.5154 76.6022 13.3851C75.4029 6.80655 73.3137 3.51728 70.3347 3.51728H61.5719V27.9426H73.4104V30.7759H61.5719V57.0575H70.3347C70.915 57.0575 71.476 56.9273 72.0177 56.6667C74.1068 55.6897 75.6543 52.4004 76.6602 46.7989L77.5887 41.8161H78.8654L78.5753 59.5978H51.3583V57.0575H56.0008V3.51728H51.3583V0.977051H78.5753L78.8654 18.7587Z" fill="white"/>
<path d="M34.9352 59.5978H34.3549C33.968 59.5978 33.6392 59.5001 33.3684 59.3047C32.8654 58.8487 32.2464 56.8947 31.5114 53.4426L25.3019 24.3276L17.7578 59.9886H17.1194C16.8099 59.9886 16.5198 59.8909 16.2489 59.6955C15.6299 59.2395 14.9142 57.1552 14.1018 53.4426L3.30782 3.51728H0V0.977051H13.3474V3.51728H8.64676L18.3381 48.8506L24.3154 19.8334L20.3112 0.977051H30.931V3.51728H26.2304L35.5156 48.7529L44.4525 3.51728H39.8099V0.977051H49.2691V3.51728H46.3675L34.9352 59.5978Z" fill="white"/>
</svg>
